<svg xmlns="http://www.w3.org/2000/svg" xmlns:xlink="http://www.w3.org/1999/xlink" width="500" zoomAndPan="magnify" viewBox="0 0 375 374.999991" height="500" preserveAspectRatio="xMidYMid meet" version="1.0"><defs><clipPath id="de5785e0ba"><path d="M 37.515625 102.652344 L 199.582031 102.652344 L 199.582031 308.117188 L 37.515625 308.117188 Z M 37.515625 102.652344 " clip-rule="nonzero"/></clipPath><clipPath id="e0312a5a05"><path d="M 77.164062 66.617188 L 164 66.617188 L 164 185 L 77.164062 185 Z M 77.164062 66.617188 " clip-rule="nonzero"/></clipPath><clipPath id="316ac38da6"><path d="M 162 102 L 337.5 102 L 337.5 308.117188 L 162 308.117188 Z M 162 102 " clip-rule="nonzero"/></clipPath><clipPath id="db11535821"><path d="M 211 66.617188 L 297.425781 66.617188 L 297.425781 185 L 211 185 Z M 211 66.617188 " clip-rule="nonzero"/></clipPath></defs><g clip-path="url(#de5785e0ba)"><path fill="#303237" d="M 71.917969 308.117188 L 72.074219 308.117188 C 81.613281 308.117188 90.582031 303.558594 96.21875 295.855469 C 96.25 295.8125 96.28125 295.773438 96.308594 295.730469 L 139.886719 236.140625 L 183.460938 176.546875 L 199.457031 154.675781 L 187.496094 102.699219 L 37.515625 308.117188 L 71.917969 308.117188 " fill-opacity="1" fill-rule="nonzero"/></g><g clip-path="url(#e0312a5a05)"><path fill="#303237" d="M 163.90625 66.617188 L 100.554688 66.617188 C 87.863281 66.617188 77.574219 76.917969 77.574219 89.621094 L 77.574219 184.859375 L 163.90625 66.617188 " fill-opacity="1" fill-rule="nonzero"/></g><g clip-path="url(#316ac38da6)"><path fill="#303237" d="M 303.070312 308.117188 L 302.914062 308.117188 C 293.375 308.117188 284.40625 303.558594 278.769531 295.855469 C 278.742188 295.8125 278.710938 295.773438 278.679688 295.730469 L 191.527344 176.546875 L 162.527344 136.890625 L 187.496094 102.699219 L 337.472656 308.117188 L 303.070312 308.117188 " fill-opacity="1" fill-rule="nonzero"/></g><g clip-path="url(#db11535821)"><path fill="#303237" d="M 211.085938 66.617188 L 274.4375 66.617188 C 287.128906 66.617188 297.414062 76.917969 297.414062 89.621094 L 297.414062 184.859375 L 211.085938 66.617188 " fill-opacity="1" fill-rule="nonzero"/></g></svg>