<svg xmlns="http://www.w3.org/2000/svg" xmlns:xlink="http://www.w3.org/1999/xlink" width="500" zoomAndPan="magnify" viewBox="0 0 375 374.999991" height="500" preserveAspectRatio="xMidYMid meet" version="1.0"><defs><g/><clipPath id="3abaa4dab8"><path d="M 113.246094 118.6875 L 193.460938 118.6875 L 193.460938 220.140625 L 113.246094 220.140625 Z M 113.246094 118.6875 " clip-rule="nonzero"/></clipPath><clipPath id="f995e2ca4d"><path d="M 133 100.890625 L 175.894531 100.890625 L 175.894531 159.402344 L 133 159.402344 Z M 133 100.890625 " clip-rule="nonzero"/></clipPath><clipPath id="bde78a27ab"><path d="M 175 118 L 261.730469 118 L 261.730469 220.140625 L 175 220.140625 Z M 175 118 " clip-rule="nonzero"/></clipPath><clipPath id="6db8b40cc4"><path d="M 199.09375 100.890625 L 241.890625 100.890625 L 241.890625 159.402344 L 199.09375 159.402344 Z M 199.09375 100.890625 " clip-rule="nonzero"/></clipPath></defs><g fill="#ffffff" fill-opacity="1"><g transform="translate(138.971641, 252.582756)"><g><path d="M 14 -3.53125 L 6.3125 -3.53125 L 4.890625 0 L -0.359375 0 L 7.671875 -18.1875 L 12.734375 -18.1875 L 20.78125 0 L 15.4375 0 Z M 12.5 -7.328125 L 10.15625 -13.140625 L 7.828125 -7.328125 Z M 12.5 -7.328125 "/></g></g></g><g fill="#ffffff" fill-opacity="1"><g transform="translate(161.159882, 252.582756)"><g><path d="M 5.6875 -14.109375 L 0.109375 -14.109375 L 0.109375 -18.1875 L 16.390625 -18.1875 L 16.390625 -14.109375 L 10.828125 -14.109375 L 10.828125 0 L 5.6875 0 Z M 5.6875 -14.109375 "/></g></g></g><g fill="#ffffff" fill-opacity="1"><g transform="translate(179.425078, 252.582756)"><g><path d="M 1.8125 -18.1875 L 6.96875 -18.1875 L 6.96875 -4.078125 L 15.640625 -4.078125 L 15.640625 0 L 1.8125 0 Z M 1.8125 -18.1875 "/></g></g></g><g fill="#ffffff" fill-opacity="1"><g transform="translate(197.040767, 252.582756)"><g><path d="M 14 -3.53125 L 6.3125 -3.53125 L 4.890625 0 L -0.359375 0 L 7.671875 -18.1875 L 12.734375 -18.1875 L 20.78125 0 L 15.4375 0 Z M 12.5 -7.328125 L 10.15625 -13.140625 L 7.828125 -7.328125 Z M 12.5 -7.328125 "/></g></g></g><g fill="#ffffff" fill-opacity="1"><g transform="translate(219.229006, 252.582756)"><g><path d="M 8.21875 0.359375 C 6.738281 0.359375 5.304688 0.175781 3.921875 -0.1875 C 2.535156 -0.550781 1.410156 -1.035156 0.546875 -1.640625 L 2.234375 -5.4375 C 3.046875 -4.894531 3.988281 -4.457031 5.0625 -4.125 C 6.132812 -3.800781 7.191406 -3.640625 8.234375 -3.640625 C 10.210938 -3.640625 11.203125 -4.132812 11.203125 -5.125 C 11.203125 -5.632812 10.921875 -6.015625 10.359375 -6.265625 C 9.796875 -6.523438 8.890625 -6.789062 7.640625 -7.0625 C 6.273438 -7.363281 5.128906 -7.679688 4.203125 -8.015625 C 3.285156 -8.347656 2.5 -8.882812 1.84375 -9.625 C 1.1875 -10.375 0.859375 -11.382812 0.859375 -12.65625 C 0.859375 -13.757812 1.160156 -14.757812 1.765625 -15.65625 C 2.367188 -16.550781 3.269531 -17.253906 4.46875 -17.765625 C 5.675781 -18.285156 7.15625 -18.546875 8.90625 -18.546875 C 10.101562 -18.546875 11.28125 -18.410156 12.4375 -18.140625 C 13.601562 -17.878906 14.628906 -17.488281 15.515625 -16.96875 L 13.921875 -13.140625 C 12.191406 -14.078125 10.515625 -14.546875 8.890625 -14.546875 C 7.867188 -14.546875 7.125 -14.394531 6.65625 -14.09375 C 6.1875 -13.789062 5.953125 -13.398438 5.953125 -12.921875 C 5.953125 -12.429688 6.226562 -12.0625 6.78125 -11.8125 C 7.332031 -11.570312 8.222656 -11.320312 9.453125 -11.0625 C 10.835938 -10.769531 11.984375 -10.453125 12.890625 -10.109375 C 13.804688 -9.773438 14.597656 -9.238281 15.265625 -8.5 C 15.929688 -7.769531 16.265625 -6.773438 16.265625 -5.515625 C 16.265625 -4.421875 15.960938 -3.429688 15.359375 -2.546875 C 14.753906 -1.660156 13.84375 -0.953125 12.625 -0.421875 C 11.414062 0.0976562 9.945312 0.359375 8.21875 0.359375 Z M 8.21875 0.359375 "/></g></g></g><g fill="#ffffff" fill-opacity="1"><g transform="translate(130.669405, 270.323653)"><g><path d="M 9.296875 0 L 9.28125 -4.921875 L 6.890625 -0.921875 L 5.71875 -0.921875 L 3.359375 -4.78125 L 3.359375 0 L 0.921875 0 L 0.921875 -9.28125 L 3.09375 -9.28125 L 6.34375 -3.921875 L 9.53125 -9.28125 L 11.6875 -9.28125 L 11.71875 0 Z M 9.296875 0 "/></g></g></g><g fill="#ffffff" fill-opacity="1"><g transform="translate(150.075028, 270.323653)"><g><path d="M 7.140625 -1.796875 L 3.21875 -1.796875 L 2.484375 0 L -0.1875 0 L 3.90625 -9.28125 L 6.5 -9.28125 L 10.59375 0 L 7.875 0 Z M 6.375 -3.734375 L 5.1875 -6.703125 L 3.984375 -3.734375 Z M 6.375 -3.734375 "/></g></g></g><g fill="#ffffff" fill-opacity="1"><g transform="translate(167.255955, 270.323653)"><g><path d="M 9.75 -9.28125 L 9.75 0 L 7.59375 0 L 3.5 -4.9375 L 3.5 0 L 0.921875 0 L 0.921875 -9.28125 L 3.09375 -9.28125 L 7.1875 -4.328125 L 7.1875 -9.28125 Z M 9.75 -9.28125 "/></g></g></g><g fill="#ffffff" fill-opacity="1"><g transform="translate(184.701731, 270.323653)"><g><path d="M 7.140625 -1.796875 L 3.21875 -1.796875 L 2.484375 0 L -0.1875 0 L 3.90625 -9.28125 L 6.5 -9.28125 L 10.59375 0 L 7.875 0 Z M 6.375 -3.734375 L 5.1875 -6.703125 L 3.984375 -3.734375 Z M 6.375 -3.734375 "/></g></g></g><g fill="#ffffff" fill-opacity="1"><g transform="translate(201.882659, 270.323653)"><g><path d="M 7.140625 -4.84375 L 9.453125 -4.84375 L 9.453125 -1 C 8.929688 -0.613281 8.320312 -0.316406 7.625 -0.109375 C 6.9375 0.0859375 6.25 0.1875 5.5625 0.1875 C 4.59375 0.1875 3.71875 -0.015625 2.9375 -0.421875 C 2.164062 -0.835938 1.554688 -1.410156 1.109375 -2.140625 C 0.671875 -2.878906 0.453125 -3.710938 0.453125 -4.640625 C 0.453125 -5.566406 0.671875 -6.394531 1.109375 -7.125 C 1.554688 -7.863281 2.171875 -8.4375 2.953125 -8.84375 C 3.742188 -9.25 4.632812 -9.453125 5.625 -9.453125 C 6.488281 -9.453125 7.265625 -9.304688 7.953125 -9.015625 C 8.640625 -8.734375 9.210938 -8.316406 9.671875 -7.765625 L 8 -6.25 C 7.375 -6.9375 6.625 -7.28125 5.75 -7.28125 C 4.957031 -7.28125 4.316406 -7.039062 3.828125 -6.5625 C 3.335938 -6.082031 3.09375 -5.441406 3.09375 -4.640625 C 3.09375 -4.128906 3.203125 -3.671875 3.421875 -3.265625 C 3.648438 -2.859375 3.960938 -2.539062 4.359375 -2.3125 C 4.753906 -2.09375 5.207031 -1.984375 5.71875 -1.984375 C 6.226562 -1.984375 6.703125 -2.085938 7.140625 -2.296875 Z M 7.140625 -4.84375 "/></g></g></g><g fill="#ffffff" fill-opacity="1"><g transform="translate(218.851711, 270.323653)"><g><path d="M 8.375 -2.03125 L 8.375 0 L 0.921875 0 L 0.921875 -9.28125 L 8.203125 -9.28125 L 8.203125 -7.25 L 3.53125 -7.25 L 3.53125 -5.6875 L 7.640625 -5.6875 L 7.640625 -3.71875 L 3.53125 -3.71875 L 3.53125 -2.03125 Z M 8.375 -2.03125 "/></g></g></g><g fill="#ffffff" fill-opacity="1"><g transform="translate(234.523021, 270.323653)"><g><path d="M 4.984375 -2.46875 L 3.546875 -2.46875 L 3.546875 0 L 0.921875 0 L 0.921875 -9.28125 L 5.171875 -9.28125 C 6.003906 -9.28125 6.726562 -9.140625 7.34375 -8.859375 C 7.96875 -8.578125 8.445312 -8.175781 8.78125 -7.65625 C 9.113281 -7.144531 9.28125 -6.539062 9.28125 -5.84375 C 9.28125 -5.175781 9.125 -4.59375 8.8125 -4.09375 C 8.5 -3.59375 8.050781 -3.203125 7.46875 -2.921875 L 9.46875 0 L 6.671875 0 Z M 6.640625 -5.84375 C 6.640625 -6.28125 6.5 -6.613281 6.21875 -6.84375 C 5.945312 -7.082031 5.546875 -7.203125 5.015625 -7.203125 L 3.546875 -7.203125 L 3.546875 -4.484375 L 5.015625 -4.484375 C 5.546875 -4.484375 5.945312 -4.597656 6.21875 -4.828125 C 6.5 -5.066406 6.640625 -5.40625 6.640625 -5.84375 Z M 6.640625 -5.84375 "/></g></g></g><g clip-path="url(#3abaa4dab8)"><path fill="#ffffff" d="M 130.273438 220.140625 L 130.351562 220.140625 C 135.074219 220.140625 139.511719 217.890625 142.300781 214.085938 C 142.316406 214.066406 142.332031 214.046875 142.347656 214.027344 L 163.914062 184.601562 L 185.484375 155.175781 L 193.402344 144.375 L 187.480469 118.707031 L 113.246094 220.140625 L 130.273438 220.140625 " fill-opacity="1" fill-rule="nonzero"/></g><g clip-path="url(#f995e2ca4d)"><path fill="#ffffff" d="M 175.804688 100.890625 L 144.445312 100.890625 C 138.164062 100.890625 133.074219 105.976562 133.074219 112.25 L 133.074219 159.28125 L 175.804688 100.890625 " fill-opacity="1" fill-rule="nonzero"/></g><g clip-path="url(#bde78a27ab)"><path fill="#ffffff" d="M 244.6875 220.140625 L 244.609375 220.140625 C 239.886719 220.140625 235.449219 217.890625 232.660156 214.085938 C 232.644531 214.066406 232.628906 214.046875 232.613281 214.027344 L 189.476562 155.175781 L 175.121094 135.59375 L 187.480469 118.707031 L 261.714844 220.140625 L 244.6875 220.140625 " fill-opacity="1" fill-rule="nonzero"/></g><g clip-path="url(#6db8b40cc4)"><path fill="#ffffff" d="M 199.15625 100.890625 L 230.511719 100.890625 C 236.796875 100.890625 241.886719 105.976562 241.886719 112.25 L 241.886719 159.28125 L 199.15625 100.890625 " fill-opacity="1" fill-rule="nonzero"/></g></svg>